<svg height="496pt" viewBox="0 -43 496 495" width="496pt" xmlns="http://www.w3.org/2000/svg"><path d="m472 168.5h-8.808594c-3.71875-18.230469-19.871094-32-39.191406-32h-352c-19.3125 0-35.472656 13.769531-39.191406 32h-8.808594c-13.230469 0-24 10.769531-24 24v64c0 13.230469 10.769531 24 24 24h8v18.808594c0 4.304687.6875 8.558594 2.046875 12.648437l12.128906 36.367188c12 35.992187 45.542969 60.175781 83.488281 60.175781h236.679688c37.9375 0 71.488281-24.183594 83.488281-60.167969l12.128907-36.375c1.351562-4.089843 2.039062-8.34375 2.039062-12.648437v-18.808594h8c13.230469 0 24-10.769531 24-24v-64c0-13.230469-10.769531-24-24-24zm-24 8v120h-24v-30.726562c4.9375-6.371094 8-14.265626 8-22.9375 0-8.625-2.921875-16.695313-8-23.175782v-67.160156c13.230469 0 24 10.769531 24 24zm-315.238281 88c-8.546875 0-15.960938-5.792969-18.035157-14.078125-2.453124-9.808594-9.039062-18.027344-18.085937-22.546875l-4.664063-2.335938c-7.382812-3.6875-11.976562-11.109374-11.976562-19.375 0-11.945312 9.71875-21.664062 21.664062-21.664062h82.335938c22.054688 0 40 17.945312 40 40s-17.945312 40-40 40zm83.238281-85.886719c-9.078125-6.351562-20.105469-10.113281-32-10.113281v-16h32zm-48-10.113281h-32v-16h32zm-48 0h-18.335938c-4.832031 0-9.417968.992188-13.664062 2.65625v-18.65625h32zm-32 72.945312 1.488281.742188c4.855469 2.433594 8.398438 6.847656 9.71875 12.121094 2.769531 11.0625 10.695313 19.65625 20.800781 23.671875v18.519531h-32v-55.054688zm48 39.054688h32v16h-32zm48 0c11.894531 0 22.921875-3.761719 32-10.113281v26.113281h-32zm48-27.304688c5.046875-8.40625 8-18.199218 8-28.695312s-2.953125-20.289062-8-28.695312v-43.304688h32v43.304688c-5.046875 8.40625-8 18.199218-8 28.695312s2.953125 20.289062 8 28.695312v43.304688h-32zm80 11.304688c-22.054688 0-40-17.945312-40-40s17.945312-40 40-40h51.238281c8.546875 0 15.960938 5.792969 18.035157 14.078125 2.453124 9.808594 9.039062 18.027344 18.085937 22.546875l4.664063 2.335938c7.382812 3.6875 11.976562 11.109374 11.976562 19.375 0 11.945312-9.71875 21.664062-21.664062 21.664062zm96-56.945312-1.488281-.742188c-4.855469-2.433594-8.398438-6.847656-9.71875-12.121094-2.769531-11.0625-10.695313-19.65625-20.800781-23.671875v-18.519531h32v55.054688zm-48-39.054688h-32v-16h32zm-48 0c-11.894531 0-22.921875 3.761719-32 10.113281v-26.113281h32zm-32 101.886719c9.078125 6.351562 20.105469 10.113281 32 10.113281v16h-32zm48 10.113281h32v16h-32zm48 0h18.335938c4.832031 0 9.417968-.992188 13.664062-2.65625v18.65625h-32zm-304-128v30.726562c-4.9375 6.371094-8 14.265626-8 22.9375 0 8.625 2.921875 16.695313 8 23.175782v67.160156h-24v-120c0-13.230469 10.769531-24 24-24zm-48 112c-4.40625 0-8-3.59375-8-8v-64c0-4.40625 3.59375-8 8-8h8v80zm342.335938 128h-236.671876c-30.601562 0-57.671874-19.246094-67.839843-48h330.175781v-16h-335.566406l-5.335938-16h393.796875l-5.335937 16h-31.558594v16h26.175781c-10.167969 28.753906-37.238281 48-67.839843 48zm113.664062-136c0 4.40625-3.59375 8-8 8h-8v-80h8c4.40625 0 8 3.59375 8 8zm0 0"/><path d="m355.761719 93.707031c-8.335938 5.21875-19.761719 12.359375-19.761719 26.792969h16c0-5.039062 3.726562-7.894531 12.238281-13.214844 8.335938-5.21875 19.761719-12.351562 19.761719-26.792968 0-14.441407-11.425781-21.578126-19.761719-26.792969-8.511719-5.320313-12.238281-8.175781-12.238281-13.214844 0-5.03125 3.726562-7.886719 12.238281-13.199219 8.335938-5.21875 19.761719-12.351562 19.761719-26.785156h-16c0 5.03125-3.726562 7.886719-12.238281 13.207031-8.335938 5.207031-19.761719 12.34375-19.761719 26.777344 0 14.429687 11.414062 21.574219 19.761719 26.785156 8.511719 5.328125 12.238281 8.183594 12.238281 13.222657 0 5.039062-3.726562 7.894531-12.238281 13.214843zm0 0"/><path d="m299.761719 93.707031c-8.335938 5.21875-19.761719 12.359375-19.761719 26.792969h16c0-5.039062 3.726562-7.894531 12.238281-13.214844 8.335938-5.21875 19.761719-12.351562 19.761719-26.792968 0-14.441407-11.425781-21.578126-19.761719-26.792969-8.511719-5.320313-12.238281-8.175781-12.238281-13.214844 0-5.03125 3.726562-7.886719 12.238281-13.199219 8.335938-5.21875 19.761719-12.351562 19.761719-26.785156h-16c0 5.03125-3.726562 7.886719-12.238281 13.207031-8.335938 5.207031-19.761719 12.34375-19.761719 26.777344 0 14.429687 11.414062 21.574219 19.761719 26.785156 8.511719 5.328125 12.238281 8.183594 12.238281 13.222657 0 5.039062-3.726562 7.894531-12.238281 13.214843zm0 0"/><path d="m243.761719 93.707031c-8.335938 5.21875-19.761719 12.359375-19.761719 26.792969h16c0-5.039062 3.726562-7.894531 12.238281-13.214844 8.335938-5.21875 19.761719-12.351562 19.761719-26.792968 0-14.441407-11.425781-21.578126-19.761719-26.792969-8.511719-5.320313-12.238281-8.175781-12.238281-13.214844 0-5.03125 3.726562-7.886719 12.238281-13.199219 8.335938-5.21875 19.761719-12.351562 19.761719-26.785156h-16c0 5.03125-3.726562 7.886719-12.238281 13.207031-8.335938 5.207031-19.761719 12.34375-19.761719 26.777344 0 14.429687 11.414062 21.574219 19.761719 26.785156 8.511719 5.328125 12.238281 8.183594 12.238281 13.222657 0 5.039062-3.726562 7.894531-12.238281 13.214843zm0 0"/><path d="m187.761719 93.707031c-8.335938 5.21875-19.761719 12.359375-19.761719 26.792969h16c0-5.039062 3.726562-7.894531 12.238281-13.214844 8.335938-5.21875 19.761719-12.351562 19.761719-26.792968 0-14.441407-11.425781-21.578126-19.761719-26.792969-8.511719-5.320313-12.238281-8.175781-12.238281-13.214844 0-5.03125 3.726562-7.886719 12.238281-13.199219 8.335938-5.21875 19.761719-12.351562 19.761719-26.785156h-16c0 5.03125-3.726562 7.886719-12.238281 13.207031-8.335938 5.207031-19.761719 12.34375-19.761719 26.777344 0 14.429687 11.414062 21.574219 19.761719 26.785156 8.511719 5.328125 12.238281 8.183594 12.238281 13.222657 0 5.039062-3.726562 7.894531-12.238281 13.214843zm0 0"/><path d="m131.761719 93.707031c-8.335938 5.21875-19.761719 12.359375-19.761719 26.792969h16c0-5.039062 3.726562-7.894531 12.238281-13.214844 8.335938-5.21875 19.761719-12.351562 19.761719-26.792968 0-14.441407-11.425781-21.578126-19.761719-26.792969-8.511719-5.320313-12.238281-8.175781-12.238281-13.214844 0-5.03125 3.726562-7.886719 12.238281-13.199219 8.335938-5.21875 19.761719-12.351562 19.761719-26.785156h-16c0 5.03125-3.726562 7.886719-12.238281 13.207031-8.335938 5.207031-19.761719 12.34375-19.761719 26.777344 0 14.429687 11.414062 21.574219 19.761719 26.785156 8.511719 5.328125 12.238281 8.183594 12.238281 13.222657 0 5.039062-3.726562 7.894531-12.238281 13.214843zm0 0"/><path d="m195.199219 254.898438 9.601562-12.796876-23.464843-17.601562 23.464843-17.601562-9.601562-12.796876-27.199219 20.398438-27.199219-20.398438-9.601562 12.796876 23.464843 17.601562-23.464843 17.601562 9.601562 12.796876 27.199219-20.398438zm0 0"/><path d="m355.199219 194.101562-27.199219 20.398438-27.199219-20.398438-9.601562 12.796876 23.464843 17.601562-23.464843 17.601562 9.601562 12.796876 27.199219-20.398438 27.199219 20.398438 9.601562-12.796876-23.464843-17.601562 23.464843-17.601562zm0 0"/></svg>