<?xml version="1.0"?>
<svg xmlns="http://www.w3.org/2000/svg" id="Layer_2" data-name="Layer 2" viewBox="0 0 128 128" width="512" height="512"><path d="M127.343,37.533,116.426,28.8a1.753,1.753,0,0,0-1.093-.383H81.812v-8a8.759,8.759,0,0,0-8.75-8.75H54.937a8.76,8.76,0,0,0-8.75,8.75v8H12.667a1.749,1.749,0,0,0-1.75,1.75v7.118H5.75A5.757,5.757,0,0,0,0,43.039V74.8a5.757,5.757,0,0,0,5.75,5.75h5.167v7.118a1.749,1.749,0,0,0,1.75,1.75H23.75v12.42H21a7.25,7.25,0,0,0,0,14.5h86a7.25,7.25,0,0,0,0-14.5h-1V89.413h9.333a1.751,1.751,0,0,0,1.093-.383l10.917-8.73A1.754,1.754,0,0,0,128,78.933V38.9A1.751,1.751,0,0,0,127.343,37.533ZM49.687,20.417a5.256,5.256,0,0,1,5.25-5.25H73.062a5.256,5.256,0,0,1,5.25,5.25v8H49.687Zm-1.75,11.5H102.5V85.913H27.25V31.921Zm-8.52,69.912V89.413H90.333v12.42ZM5.75,77.045A2.253,2.253,0,0,1,3.5,74.8V43.039a2.253,2.253,0,0,1,2.25-2.25h5.167V77.045Zm8.667,1.75V31.921H23.75V85.913H14.417ZM27.25,89.413h8.667v12.42H27.25Zm83.5,19.67a3.755,3.755,0,0,1-3.75,3.75H21a3.75,3.75,0,0,1,0-7.5h86A3.755,3.755,0,0,1,110.75,109.083Zm-16.917-7.25V89.413H102.5v12.42ZM124.5,78.092l-9.78,7.821H106V31.921h8.72l9.78,7.821Z"/><path d="M34.75,41.911H95a1.75,1.75,0,0,0,0-3.5H34.75a1.75,1.75,0,0,0,0,3.5Z"/><path d="M34.75,51.289H95a1.75,1.75,0,0,0,0-3.5H34.75a1.75,1.75,0,0,0,0,3.5Z"/><path d="M34.75,60.667H95a1.75,1.75,0,0,0,0-3.5H34.75a1.75,1.75,0,0,0,0,3.5Z"/><path d="M34.75,70.045H95a1.75,1.75,0,0,0,0-3.5H34.75a1.75,1.75,0,0,0,0,3.5Z"/><path d="M34.75,79.423H95a1.75,1.75,0,0,0,0-3.5H34.75a1.75,1.75,0,0,0,0,3.5Z"/><path d="M70.437,20.044H57.562a1.75,1.75,0,0,0,0,3.5H70.437a1.75,1.75,0,0,0,0-3.5Z"/></svg>
