<?xml version="1.0" encoding="iso-8859-1"?>
<!-- Generator: Adobe Illustrator 17.1.0, SVG Export Plug-In . SVG Version: 6.00 Build 0)  -->
<!DOCTYPE svg PUBLIC "-//W3C//DTD SVG 1.1//EN" "http://www.w3.org/Graphics/SVG/1.1/DTD/svg11.dtd">
<svg version="1.1" id="Capa_1" xmlns="http://www.w3.org/2000/svg" xmlns:xlink="http://www.w3.org/1999/xlink" x="0px" y="0px"
	 viewBox="0 0 424 424" style="enable-background:new 0 0 424 424;" xml:space="preserve">
<g>
	<path d="M414,220.433h-14V75.235c0-25.172-6.149-44.357-18.276-57.022C370.919,6.929,355.997,1.207,337.371,1.207
		c-33.205,0-60.398,26.328-61.984,59.291C256.589,63.825,241,76.613,235.071,94.401c-2.168,6.501-1.457,12.94,1.948,17.666
		c2.422,3.36,7.268,7.365,16.601,7.365h65.938c8.023,0,12.193-4.107,13.964-6.555c4.841-6.69,2.85-15.043,1.769-18.324
		c-5.84-17.719-21.227-30.5-39.865-33.971c1.515-21.966,19.743-39.375,41.946-39.375C366.056,21.207,380,38.88,380,75.235v145.197
		H10c-5.522,0-10,4.478-10,10s4.478,10,10,10h12v72.204c0,31.028,22.452,56.941,52.083,62.625c-2.24,4.434-3.511,9.438-3.511,14.737
		c0,18.083,14.712,32.795,32.795,32.795c18.084,0,32.796-14.712,32.796-32.795c0-4.837-1.061-9.428-2.949-13.565H289.71
		c-1.888,4.137-2.949,8.729-2.949,13.565c0,18.083,14.712,32.795,32.795,32.795c18.084,0,32.796-14.712,32.796-32.795
		c0-5.317-1.28-10.338-3.535-14.784c29.14-5.787,51.184-31.641,51.184-62.577v-70.204v-2h14c5.522,0,10-4.478,10-10
		S419.522,220.433,414,220.433z M315.799,99.433H254.51c4.605-11.898,16.739-19.798,30.646-19.798
		C298.85,79.635,311.229,87.706,315.799,99.433z M103.367,402.793c-7.055,0-12.795-5.74-12.795-12.795
		c0-7.056,5.74-12.796,12.795-12.796c7.056,0,12.796,5.74,12.796,12.796C116.163,397.053,110.423,402.793,103.367,402.793z
		 M319.556,402.793c-7.055,0-12.795-5.74-12.795-12.795c0-7.056,5.74-12.796,12.795-12.796c7.056,0,12.796,5.74,12.796,12.796
		C332.352,397.053,326.611,402.793,319.556,402.793z M380,242.433v70.204c0,24.149-19.525,43.796-43.526,43.796H86.313
		C61.879,356.433,42,336.786,42,312.637v-72.204h338V242.433z"/>
	<path d="M283.5,153.933c5.247,0,9.5-4.253,9.5-9.5v-4c0-5.247-4.253-9.5-9.5-9.5s-9.5,4.253-9.5,9.5v4
		C274,149.68,278.253,153.933,283.5,153.933z"/>
	<path d="M274,172.433c0,5.247,4.253,9.5,9.5,9.5s9.5-4.253,9.5-9.5v-4c0-5.247-4.253-9.5-9.5-9.5s-9.5,4.253-9.5,9.5V172.433z"/>
	<path d="M274,202.433c0,5.247,4.253,9.5,9.5,9.5s9.5-4.253,9.5-9.5v-5c0-5.247-4.253-9.5-9.5-9.5s-9.5,4.253-9.5,9.5V202.433z"/>
	<path d="M253.012,154.83c1.068,0.387,2.16,0.57,3.234,0.57c3.887,0,7.533-2.403,8.934-6.268l1.197-3.306
		c1.786-4.934-0.765-10.381-5.697-12.168c-4.934-1.785-10.38,0.766-12.168,5.697l-1.197,3.306
		C245.528,147.596,248.079,153.043,253.012,154.83z"/>
	<path d="M238.933,165.797l-1.198,3.305c-1.789,4.933,0.76,10.381,5.692,12.169c1.069,0.388,2.162,0.572,3.237,0.572
		c3.885,0,7.531-2.401,8.932-6.265l1.198-3.305c1.789-4.933-0.76-10.381-5.692-12.169
		C246.168,158.315,240.721,160.864,238.933,165.797z"/>
	<path d="M233.448,208.816c1.069,0.388,2.161,0.571,3.235,0.571c3.886,0,7.533-2.402,8.933-6.267l1.197-3.305
		c1.787-4.934-0.763-10.381-5.695-12.168c-4.938-1.79-10.382,0.763-12.168,5.695l-1.197,3.305
		C225.966,201.582,228.516,207.029,233.448,208.816z"/>
	<path d="M320.618,139.356c-1.787-4.933-7.229-7.484-12.168-5.697c-4.933,1.787-7.483,7.234-5.697,12.168l1.197,3.306
		c1.4,3.865,5.047,6.268,8.934,6.268c1.073,0,2.166-0.184,3.234-0.57c4.933-1.787,7.483-7.234,5.697-12.168L320.618,139.356z"/>
	<path d="M330.199,165.799c-1.787-4.932-7.233-7.485-12.168-5.695c-4.933,1.787-7.482,7.234-5.695,12.168l1.197,3.305
		c1.4,3.864,5.046,6.267,8.933,6.267c1.074,0,2.167-0.184,3.235-0.571c4.933-1.787,7.482-7.234,5.695-12.168L330.199,165.799z"/>
	<path d="M322.317,199.818l1.198,3.305c1.4,3.863,5.046,6.265,8.932,6.265c1.074,0,2.168-0.185,3.237-0.572
		c4.933-1.788,7.481-7.236,5.692-12.169l-1.198-3.305c-1.788-4.932-7.232-7.483-12.169-5.692
		C323.077,189.438,320.528,194.886,322.317,199.818z"/>
</g>
<g>
</g>
<g>
</g>
<g>
</g>
<g>
</g>
<g>
</g>
<g>
</g>
<g>
</g>
<g>
</g>
<g>
</g>
<g>
</g>
<g>
</g>
<g>
</g>
<g>
</g>
<g>
</g>
<g>
</g>
</svg>
