<?xml version="1.0" encoding="iso-8859-1"?>
<!-- Generator: Adobe Illustrator 19.0.0, SVG Export Plug-In . SVG Version: 6.00 Build 0)  -->
<svg version="1.1" id="Capa_1" xmlns="http://www.w3.org/2000/svg" xmlns:xlink="http://www.w3.org/1999/xlink" x="0px" y="0px"
	 viewBox="0 0 463.002 463.002" style="enable-background:new 0 0 463.002 463.002;" xml:space="preserve">
<g>
	<path d="M303.501,0h-16c-5.827,0-10.908,3.235-13.555,8h-18.945V7.5c0-4.142-3.358-7.5-7.5-7.5s-7.5,3.358-7.5,7.5V8h-17V7.5
		c0-4.142-3.358-7.5-7.5-7.5s-7.5,3.358-7.5,7.5V8h-18.945c-2.647-4.765-7.728-8-13.555-8h-16c-30.603,0-55.5,24.897-55.5,55.5
		v276.611c0,33.357,12.382,65.243,34.866,89.784c22.776,24.86,53.489,39.407,86.481,40.96c2.083,0.098,4.156,0.147,6.225,0.147
		c32.95,0,63.972-12.384,87.926-35.238c25.473-24.302,39.502-57.069,39.502-92.264v-280C359.001,24.897,334.104,0,303.501,0z
		 M223.001,72V55h17v17H223.001z M199.501,72c-4.687,0-8.5-3.813-8.5-8.5V55h17v17H199.501z M255.001,55h17v8.5
		c0,4.687-3.813,8.5-8.5,8.5h-8.5V55z M272.001,23v17h-17V23H272.001z M240.001,23v17h-17V23H240.001z M208.001,40h-17V23h17V40z
		 M159.501,15h16c0.276,0,0.5,0.224,0.5,0.5v48c0,12.958,10.542,23.5,23.5,23.5h64c12.958,0,23.5-10.542,23.5-23.5v-48
		c0-0.276,0.224-0.5,0.5-0.5h16c22.332,0,40.5,18.168,40.5,40.5V120h-66.234c-3.138-9.29-11.93-16-22.266-16h-48
		c-10.336,0-19.128,6.71-22.266,16h-66.234V55.5C119.001,33.168,137.169,15,159.501,15z M264.001,127.5c0,4.687-3.813,8.5-8.5,8.5
		h-48c-4.687,0-8.5-3.813-8.5-8.5s3.813-8.5,8.5-8.5h48C260.188,119,264.001,122.813,264.001,127.5z M309.145,416.911
		c-21.137,20.166-48.509,31.092-77.595,31.09c-1.825,0-3.66-0.043-5.497-0.129c-29.008-1.366-56.044-14.19-76.126-36.11
		c-19.943-21.768-30.926-50.055-30.926-79.651V135h66.234c3.138,9.29,11.93,16,22.266,16h48c10.336,0,19.128-6.71,22.266-16h66.234
		v200.5C344.001,366.555,331.622,395.467,309.145,416.911z"/>
	<path d="M231.501,184c-12.958,0-23.5,10.542-23.5,23.5v40c0,12.958,10.542,23.5,23.5,23.5s23.5-10.542,23.5-23.5v-40
		C255.001,194.542,244.459,184,231.501,184z M231.501,199c4.687,0,8.5,3.813,8.5,8.5s-3.813,8.5-8.5,8.5s-8.5-3.813-8.5-8.5
		S226.814,199,231.501,199z M231.501,256c-4.687,0-8.5-3.813-8.5-8.5v-18.097c2.638,1.027,5.503,1.597,8.5,1.597
		s5.862-0.57,8.5-1.597V247.5C240.001,252.187,236.188,256,231.501,256z"/>
</g>
<g>
</g>
<g>
</g>
<g>
</g>
<g>
</g>
<g>
</g>
<g>
</g>
<g>
</g>
<g>
</g>
<g>
</g>
<g>
</g>
<g>
</g>
<g>
</g>
<g>
</g>
<g>
</g>
<g>
</g>
</svg>
