<svg id="Capa_1" enable-background="new 0 0 512 512" height="512" viewBox="0 0 512 512" width="512" xmlns="http://www.w3.org/2000/svg"><g><g><path d="m241.66 126.03c2.093 5.023 8.017 7.49 13.05 5.4 5.035-2.091 7.497-8.017 5.41-13.06-2.081-5.026-8.036-7.491-13.06-5.4-5.049 2.101-7.469 8.013-5.4 13.06z"/><path d="m457.619 362.93h-.329v-6.758c0-48.03-39.109-87.106-87.181-87.106-48.071 0-87.18 39.076-87.18 87.106v68.722c0 37.002-30.137 67.106-67.181 67.106-27.109 0-51.287-16.305-61.74-40.626 10.597-5.517 17.855-16.595 17.855-29.342v-15.47c17.657-11.099 29.424-30.733 29.424-53.072v-42.317c36.587-4.893 54.894-35.362 55.718-36.768 2.462-4.202 1.54-9.566-2.185-12.704l-43.946-37.021 132.206-44.953c24.049-8.179 51.081-1.729 69.436 15.638 10.217 9.675 25.786 20.797 46.416 25.389 8.385 1.868 29.38 6.724 29.38-7.839v-180.157c0-11.094-12.244-10.299-19.925-9.481-20.087 2.118-38.629 11.002-55.284 26.487-18.489 17.219-45.581 23.446-69.562 15.078l-154.006-53.781c-15.658-7.15-32.959-11.061-50.964-11.061-66.523 0-122.315 55.585-122.315 122.206 0 14.113 2.415 27.67 6.84 40.292.128.461.284.911.474 1.343 9.671 26.582 28.326 48.887 52.279 63.241v126.408c0 22.517 11.952 42.291 29.844 53.341v15.201c0 16.548 12.227 30.294 28.127 32.695 12.413 34.068 45.094 57.273 81.929 57.273 48.072 0 87.181-39.076 87.181-87.106v-68.722c0-37.002 30.137-67.106 67.181-67.106s67.181 30.104 67.181 67.106v6.758h-.329c-21.022 0-38.125 17.091-38.125 38.098v40.991c0 5.523 4.477 10 10 10h9.888v17.032c0 5.523 4.477 10 10 10s10-4.477 10-10v-17.032h16.248v17.032c0 5.523 4.477 10 10 10s10-4.477 10-10v-17.032h10.771c5.523 0 10-4.477 10-10v-40.991c-.001-21.007-17.104-38.098-38.126-38.098zm-256.332-71.991v-48.185l33.479 28.204c-5.927 6.865-17.095 16.922-33.479 19.981zm217.546-116.415v-103.555c7.115-5.259 13.163-11.71 20.629-16.539 8.72-5.64 18.548-9.539 28.85-10.994v158.717c-10.547-1.56-20.633-5.629-29.548-11.433-7.251-4.719-13.086-10.983-19.931-16.196zm-370.773-4.705h38.776c5.523 0 10-4.477 10-10s-4.477-10-10-10h-46.783c-1.6-5.688-2.717-11.574-3.307-17.613h49.102c5.523 0 10-4.477 10-10s-4.477-10-10-10h-49.102c.586-6 1.693-11.849 3.277-17.502h45.826c5.523 0 10-4.477 10-10s-4.477-10-10-10h-37.847c17.149-32.497 51.309-54.704 90.569-54.704 41.007 0 78.868 25.276 94.566 63.142 1.851 4.465 6.563 6.878 11.131 5.991.653-.126 1.302-.32 1.94-.585 5.102-2.115 7.523-7.965 5.409-13.067-3.967-9.569-9.164-18.662-15.398-26.934l100.732 35.177c20.421 7.126 42.33 6.332 61.882-1.545v80.799c-19.575-8.163-41.606-9.189-62.192-2.188l-99.517 33.838c5.756-7.837 10.599-16.379 14.351-25.352 2.13-5.095-.273-10.953-5.369-13.083-5.018-2.097-10.983.329-13.09 5.367-15.251 36.468-51.439 61.423-90.926 62.787-38.834 1.313-75.857-20.193-94.03-54.528zm47.789 66.902c27.39 10.176 58.038 10.197 85.438.029v65.104 51.635c0 16.897-9.885 31.531-24.182 38.438-10.322 4.991-22.498 5.543-33.257 1.619-16.325-6.004-27.999-21.694-27.999-40.057zm29.844 185.311v-7.189c8.579 1.787 17.602 1.761 26.17-.088v7.278c0 7.206-5.868 13.067-13.08 13.067-7.218-.001-13.09-5.863-13.09-13.068zm350.051 9.987h-56.908v-30.991c0-9.979 8.131-18.098 18.125-18.098h20.658c9.994 0 18.125 8.119 18.125 18.098z"/></g></g></svg>