<?xml version="1.0" encoding="iso-8859-1"?>
<!-- Generator: Adobe Illustrator 17.1.0, SVG Export Plug-In . SVG Version: 6.00 Build 0)  -->
<!DOCTYPE svg PUBLIC "-//W3C//DTD SVG 1.1//EN" "http://www.w3.org/Graphics/SVG/1.1/DTD/svg11.dtd">
<svg version="1.1" id="Capa_1" xmlns="http://www.w3.org/2000/svg" xmlns:xlink="http://www.w3.org/1999/xlink" x="0px" y="0px"
	 viewBox="0 0 449.904 449.904" style="enable-background:new 0 0 449.904 449.904;" xml:space="preserve">
<g>
	<path d="M346.952,343.904c-5.522,0-10,4.478-10,10v28c0,5.522,4.478,10,10,10s10-4.478,10-10v-28
		C356.952,348.382,352.475,343.904,346.952,343.904z"/>
	<path d="M346.952,397.904c-5.522,0-10,4.478-10,10v32c0,5.522,4.478,10,10,10s10-4.478,10-10v-32
		C356.952,402.382,352.475,397.904,346.952,397.904z"/>
	<path d="M346.952,308.904c-5.522,0-10,4.478-10,10v10c0,5.522,4.478,10,10,10s10-4.478,10-10v-10
		C356.952,313.382,352.475,308.904,346.952,308.904z"/>
	<path d="M381.952,308.904c-5.522,0-10,4.478-10,10v10c0,5.522,4.478,10,10,10s10-4.478,10-10v-10
		C391.952,313.382,387.475,308.904,381.952,308.904z"/>
	<path d="M381.952,345.904c-5.522,0-10,4.478-10,10v10c0,5.522,4.478,10,10,10s10-4.478,10-10v-10
		C391.952,350.382,387.475,345.904,381.952,345.904z"/>
	<path d="M381.952,383.904c-5.522,0-10,4.478-10,10v10c0,5.522,4.478,10,10,10s10-4.478,10-10v-10
		C391.952,388.382,387.475,383.904,381.952,383.904z"/>
	<path d="M381.952,419.904c-5.522,0-10,4.478-10,10v10c0,5.522,4.478,10,10,10s10-4.478,10-10v-10
		C391.952,424.382,387.475,419.904,381.952,419.904z"/>
	<path d="M312.952,308.904c-5.522,0-10,4.478-10,10v10c0,5.522,4.478,10,10,10s10-4.478,10-10v-10
		C322.952,313.382,318.475,308.904,312.952,308.904z"/>
	<path d="M312.952,345.904c-5.522,0-10,4.478-10,10v10c0,5.522,4.478,10,10,10s10-4.478,10-10v-10
		C322.952,350.382,318.475,345.904,312.952,345.904z"/>
	<path d="M312.952,383.904c-5.522,0-10,4.478-10,10v10c0,5.522,4.478,10,10,10s10-4.478,10-10v-10
		C322.952,388.382,318.475,383.904,312.952,383.904z"/>
	<path d="M312.952,419.904c-5.522,0-10,4.478-10,10v10c0,5.522,4.478,10,10,10s10-4.478,10-10v-10
		C322.952,424.382,318.475,419.904,312.952,419.904z"/>
	<path d="M392.27,245.904h-5.317v-80.421c0-13.794-7.081-32.925-15.875-43.554l-5.645-6.464
		c-9.19-11.104-27.775-19.561-42.188-19.561h-73.291V86.56c0-12.682-10.572-22.655-23.255-22.655h-19.745v-26h36.952
		c5.522,0,10-4.477,10-10s-4.478-10-10-10h-36.952V10c0-5.523-4.478-10-10-10s-10,4.477-10,10v7.904h-37.404
		c-5.522,0-10,4.477-10,10s4.478,10,10,10h37.404v26h-20.196c-12.683,0-22.804,9.973-22.804,22.655v9.345H72.166
		c-17.094,0-31.214,13.422-31.214,30.515v24.946c0,17.093,14.12,30.539,31.214,30.539h71.786v4.994
		c0,12.682,10.121,23.006,22.804,23.006h59.941c12.683,0,23.255-10.324,23.255-23.006v-4.994h50v64h-4.726
		c-9.374,0-17.274,7.603-17.274,16.977v18.429c0,9.374,7.9,16.595,17.274,16.595h97.043c9.374,0,16.683-7.221,16.683-16.595v-18.429
		C408.952,253.507,401.644,245.904,392.27,245.904z M72.166,161.904c-6.065,0-11.214-4.473-11.214-10.539v-24.946
		c0-6.065,5.148-10.515,11.214-10.515h71.786v46H72.166z M229.952,186.904c0,1.657-1.343,3-3,3h-60c-1.657,0-3-1.343-3-3v-100
		c0-1.657,1.343-3,3-3h60c1.657,0,3,1.343,3,3V186.904z M388.952,277.904h-91v-12h4.672c9.691,0,17.328-5.973,17.328-13.862v-72.676
		c0-9.374-7.954-17.461-17.328-17.461h-52.672v-46h73.291c8.528,0,21.247,5.741,26.685,12.312l5.741,6.584
		c5.909,7.142,11.284,21.414,11.284,30.682v89.663c0,0.124-0.177,0.245-0.172,0.368c-0.004,0.123-0.114,0.255-0.114,0.379
		c0,5.522,4.382,10.012,9.905,10.012h12.382V277.904z"/>
</g>
<g>
</g>
<g>
</g>
<g>
</g>
<g>
</g>
<g>
</g>
<g>
</g>
<g>
</g>
<g>
</g>
<g>
</g>
<g>
</g>
<g>
</g>
<g>
</g>
<g>
</g>
<g>
</g>
<g>
</g>
</svg>
