<?xml version="1.0" encoding="iso-8859-1"?>
<!-- Generator: Adobe Illustrator 19.0.0, SVG Export Plug-In . SVG Version: 6.00 Build 0)  -->
<svg version="1.1" id="Capa_1" xmlns="http://www.w3.org/2000/svg" xmlns:xlink="http://www.w3.org/1999/xlink" x="0px" y="0px"
	 viewBox="0 0 511.999 511.999" style="enable-background:new 0 0 511.999 511.999;" xml:space="preserve">
<g>
	<g>
		<path d="M366.604,79.372H338.97v-9.76c8.419-1.704,14.777-9.159,14.777-18.073V41.12c0-10.168-8.273-18.441-18.441-18.441H288.86
			V17.45c0-9.622-7.828-17.45-17.45-17.45h-57.843c-9.622,0-17.45,7.828-17.45,17.45v5.228H149.67
			c-10.168,0-18.441,8.273-18.441,18.441v10.42c0,8.914,6.358,16.369,14.777,18.073v32.835c0,4.142,3.358,7.5,7.5,7.5
			c4.142,0,7.5-3.358,7.5-7.5V69.98H323.97v128.726c0,0.007,0,0.014,0,0.021v33.795c0,0.008,0,0.016,0,0.024v3.601
			c0,20.498-16.676,37.174-37.174,37.174h-88.617c-20.498,0-37.174-16.676-37.174-37.174v-98.866c0-4.142-3.358-7.5-7.5-7.5
			c-4.142,0-7.5,3.358-7.5,7.5v98.866c0,14.54,5.984,27.704,15.612,37.174h-9.743c-10.011,0-18.155,8.144-18.155,18.155v17.614
			c0,2.355,0.465,4.601,1.285,6.668c-4.444,2.972-7.728,7.616-8.844,13.135l-24.703,122.114c-1.668,8.247,0.43,16.711,5.757,23.224
			c5.327,6.513,13.208,10.247,21.622,10.247h4.883v9.173c0,10.117,8.231,18.348,18.348,18.348h15.657
			c10.117,0,18.348-8.231,18.348-18.348v-9.173h112.83v9.173c0,10.117,8.231,18.348,18.348,18.348h15.657
			c10.117,0,18.348-8.231,18.348-18.348v-9.173h4.883c8.414,0,16.294-3.735,21.621-10.247c5.328-6.513,7.426-14.978,5.758-23.224
			l-3.772-18.646c-0.821-4.06-4.779-6.685-8.838-5.864c-4.06,0.821-6.686,4.778-5.864,8.838l3.772,18.646
			c0.772,3.818-0.199,7.738-2.666,10.753c-2.466,3.015-6.115,4.745-10.011,4.745H128.837c-3.895,0-7.544-1.729-10.011-4.745
			c-2.467-3.016-3.438-6.935-2.666-10.753l24.703-122.114c0.542-2.678,2.918-4.621,5.65-4.621h191.95
			c2.732,0,5.108,1.943,5.65,4.621l13.937,68.895c0.821,4.06,4.78,6.686,8.838,5.864c4.06-0.821,6.685-4.778,5.864-8.838
			l-13.937-68.894c-1.116-5.518-4.4-10.163-8.844-13.134c0.82-2.067,1.285-4.312,1.285-6.668v-17.614
			c0-10.011-8.144-18.155-18.155-18.155h-9.742c9.258-9.107,15.132-21.633,15.57-35.511l19.364-6.452
			c31.587-10.524,52.809-39.965,52.809-73.259V123.87C411.102,99.334,391.14,79.372,366.604,79.372z M313.903,484.478h22.353v9.173
			c0,1.846-1.502,3.348-3.348,3.348h-15.657c-1.846,0-3.348-1.502-3.348-3.348V484.478z M148.72,484.478L148.72,484.478h22.353
			v9.173c0,1.846-1.502,3.348-3.348,3.348h-15.657c-1.846,0-3.348-1.502-3.348-3.348V484.478z M333.101,288.322
			c1.74,0,3.155,1.415,3.155,3.155v17.614c0,1.74-1.415,3.155-3.155,3.155H151.875c-1.74,0-3.155-1.415-3.155-3.155v-17.614
			c0-1.74,1.415-3.155,3.155-3.155H333.101z M211.115,17.45h0.001c0-1.351,1.099-2.45,2.45-2.45h57.843
			c1.351,0,2.45,1.099,2.45,2.45v5.228h-62.744V17.45z M335.307,54.981H149.669c-1.897,0-3.441-1.543-3.441-3.441V41.12
			c0-1.897,1.544-3.441,3.441-3.441h185.637c1.897,0,3.441,1.544,3.441,3.441v10.42h0.001
			C338.748,53.437,337.204,54.981,335.307,54.981z M338.97,126.456h25.048v31.645c0,12.993-8.282,24.482-20.609,28.59l-4.439,1.479
			V126.456z M353.551,217.129l-14.581,4.858V203.98l9.18-3.059c18.463-6.151,30.868-23.36,30.868-42.82V123.87
			c0-6.845-5.569-12.414-12.414-12.414H338.97V94.372h27.634c16.265,0,29.497,13.232,29.497,29.497v34.232h0.001
			C396.102,184.927,379.002,208.649,353.551,217.129z"/>
	</g>
</g>
<g>
	<g>
		<path d="M228.072,87.65c-4.142,0-7.5,3.358-7.5,7.5V220.6c0,4.142,3.358,7.5,7.5,7.5c4.142,0,7.5-3.358,7.5-7.5V95.15
			C235.572,91.008,232.214,87.65,228.072,87.65z"/>
	</g>
</g>
<g>
	<g>
		<path d="M300.344,150.375h-30.369c-4.142,0-7.5,3.358-7.5,7.5c0,4.142,3.358,7.5,7.5,7.5h30.369c4.142,0,7.5-3.358,7.5-7.5
			C307.844,153.733,304.486,150.375,300.344,150.375z"/>
	</g>
</g>
<g>
	<g>
		<path d="M242.487,390.377c-11.78,0-21.363,9.583-21.363,21.364c0,11.78,9.583,21.363,21.363,21.363
			c11.78,0,21.364-9.583,21.364-21.363C263.851,399.961,254.267,390.377,242.487,390.377z M242.487,418.104
			c-3.509,0-6.363-2.854-6.363-6.363c0-3.509,2.854-6.364,6.363-6.364c3.509,0,6.364,2.855,6.364,6.364
			C248.851,415.25,245.996,418.104,242.487,418.104z"/>
	</g>
</g>
<g>
	<g>
		<path d="M300.344,213.1h-30.369c-4.142,0-7.5,3.358-7.5,7.5c0,4.142,3.358,7.5,7.5,7.5h30.369c4.142,0,7.5-3.358,7.5-7.5
			C307.844,216.458,304.486,213.1,300.344,213.1z"/>
	</g>
</g>
<g>
	<g>
		<path d="M300.344,181.737H282.43c-4.142,0-7.5,3.358-7.5,7.5c0,4.142,3.358,7.5,7.5,7.5h17.914c4.142,0,7.5-3.358,7.5-7.5
			C307.844,185.095,304.486,181.737,300.344,181.737z"/>
	</g>
</g>
<g>
	<g>
		<path d="M242.487,342.771c-25.913,0-46.995,25.213-46.995,56.205c0,30.991,21.082,56.205,46.995,56.205
			c25.914,0,46.996-25.213,46.996-56.205S268.401,342.771,242.487,342.771z M242.487,440.181c-17.642,0-31.995-18.484-31.995-41.205
			s14.353-41.205,31.995-41.205c17.643,0,31.996,18.484,31.996,41.205C274.483,421.696,260.13,440.181,242.487,440.181z"/>
	</g>
</g>
<g>
	<g>
		<path d="M300.344,119.013H282.43c-4.142,0-7.5,3.358-7.5,7.5c0,4.142,3.358,7.5,7.5,7.5h17.914c4.142,0,7.5-3.358,7.5-7.5
			C307.844,122.371,304.486,119.013,300.344,119.013z"/>
	</g>
</g>
<g>
	<g>
		<path d="M300.344,87.65h-30.369c-4.142,0-7.5,3.358-7.5,7.5c0,4.142,3.358,7.5,7.5,7.5h30.369c4.142,0,7.5-3.358,7.5-7.5
			C307.844,91.008,304.486,87.65,300.344,87.65z"/>
	</g>
</g>
<g>
</g>
<g>
</g>
<g>
</g>
<g>
</g>
<g>
</g>
<g>
</g>
<g>
</g>
<g>
</g>
<g>
</g>
<g>
</g>
<g>
</g>
<g>
</g>
<g>
</g>
<g>
</g>
<g>
</g>
</svg>
