<svg id="Capa_1" enable-background="new 0 0 511.998 511.998" height="512" viewBox="0 0 511.998 511.998" width="512" xmlns="http://www.w3.org/2000/svg"><g><g><g><path d="m458.523 130.052c-1.822-1.594-4.161-2.472-6.582-2.472h-34.034c-1.187 0-2.364.211-3.478.624l-19.115 7.089 2.695-11.857c1.225-5.386-2.149-10.744-7.534-11.968-5.39-1.227-10.744 2.149-11.968 7.534l-5.021 22.091h-155.877l-14.385-37.327 96.103 14.315c5.468.808 10.551-2.955 11.364-8.417.813-5.463-2.955-10.551-8.417-11.364l-113.08-16.845c-7.428-1.106-13.511 6.463-10.804 13.486l22.356 58.011v43.13c-15.712 16.587-28.475 36.603-37.331 57.972-6.382 14.337-10.392 30.129-12.455 45.656h-93.773-11.714c-13.696 0-26.524 6.103-35.194 16.744-8.719 10.701-12.117 24.602-9.325 38.137 4.349 21.078 23.072 36.376 44.519 36.376h21.894c4.291 7.167 9.214 13.747 14.738 19.682h-15.887c-5.523 0-10 4.478-10 10s4.477 10 10 10h366.477c5.522 0 10-4.478 10-10s-4.478-10-10-10h-16.899c10.403-11.123 22.202-27.598 28.464-49.5.863-3.017.26-6.265-1.63-8.771-.822-1.089-1.853-1.969-3.006-2.632 2.025-9.203 3.07-18.89 3.07-28.956 0-32.925-10.56-65.67-27.607-93.659-4.826-7.924-10.219-15.507-16.158-22.636l34.911-12.496c23.25 10.378 50.37 57.189 59.185 75.086 4.562 9.273 18.974 5.893 18.974-4.413-.001-84.886-51.292-130.711-53.476-132.62zm-39.102 218.349h-173.613c2.645-12.297 4.078-25.046 3.671-37.634.621-5.852-4.099-11.028-9.945-11.056h-68.379c1.685-11.121 4.617-22.054 8.575-32.578 27.782-3.857 68.297-3.854 112.518 14.644 53.479 22.37 97.246 18.094 127.106 8.685 4.075 18.976 4.828 39.016.067 57.939zm-119.454-85.075c-42.133-17.623-81.194-19.885-110.643-17.38 6.997-13.037 15.653-25.201 25.661-35.814h162.252c16.274 17.267 28.925 38.616 36.705 61.057-26.432 8.45-65.568 12.386-113.975-7.863zm71.502-102.232v29.031h-150.724v-29.031zm-325.996 209.875c-12.005 0-22.49-8.587-24.931-20.417-1.573-7.621.338-15.444 5.242-21.463 4.855-5.959 12.031-9.377 19.688-9.377h1.83c.334 8.731 1.58 22.054 5.574 36.781 1.357 5.001 2.966 9.816 4.769 14.476zm67.216 39.681c-24.662-16.474-38.508-43.984-43.413-72.653-1.034-6.045-1.701-12.158-1.967-18.285h92.646 69.447c-1.162 26.366-9.143 53.548-26.391 73.965-5.492 6.501-11.902 12.246-18.98 16.974h-71.342zm105.144 0c-.998-.001-1.993-.046-2.98-.137 10.848-11.656 19.296-25.746 25.23-42.103h180.287c-6.723 15.002-16.288 26.13-23.892 33.338-6.039 5.731-14.003 8.891-22.428 8.901h-156.217zm219.091-238.841c-2.067-.648-4.33-.605-6.369.125l-39.086 13.99v-27.874l28.233-10.471h28.195c4.104 4.194 12.546 13.627 20.888 27.857 7.54 12.864 13.261 26.466 17.137 40.705-13.484-19.136-30.967-38.664-48.998-44.332z"/><path d="m337.078 118.799c2.094 5.023 8.021 7.503 13.06 5.41 5.032-2.091 7.489-8.027 5.41-13.061-2.078-5.031-8.033-7.496-13.06-5.409-5.05 2.096-7.478 8.011-5.41 13.06z"/></g></g></g></svg>