<?xml version="1.0" encoding="iso-8859-1"?>
<!-- Generator: Adobe Illustrator 19.0.0, SVG Export Plug-In . SVG Version: 6.00 Build 0)  -->
<svg version="1.1" id="Capa_1" xmlns="http://www.w3.org/2000/svg" xmlns:xlink="http://www.w3.org/1999/xlink" x="0px" y="0px"
	 viewBox="0 0 463 463" style="enable-background:new 0 0 463 463;" xml:space="preserve">
<g>
	<path d="M462.963,382.759c-0.01-0.106-0.031-0.21-0.045-0.315c-0.019-0.137-0.036-0.275-0.063-0.411
		c-0.024-0.122-0.058-0.24-0.088-0.36c-0.029-0.117-0.055-0.235-0.09-0.351c-0.036-0.118-0.08-0.231-0.121-0.347
		c-0.041-0.116-0.08-0.232-0.127-0.346c-0.045-0.108-0.098-0.212-0.147-0.317c-0.055-0.116-0.106-0.233-0.167-0.347
		c-0.055-0.103-0.118-0.2-0.177-0.3c-0.066-0.11-0.128-0.222-0.2-0.329c-0.075-0.112-0.158-0.217-0.239-0.324
		c-0.066-0.088-0.127-0.179-0.198-0.264c-0.157-0.192-0.323-0.376-0.498-0.551L311,228.394V47.5c0-4.142-3.358-7.5-7.5-7.5h-144
		c-4.142,0-7.5,3.358-7.5,7.5v180.894L2.198,378.196c-0.175,0.175-0.341,0.359-0.498,0.551c-0.07,0.086-0.132,0.176-0.198,0.264
		c-0.081,0.107-0.164,0.213-0.239,0.324c-0.072,0.107-0.134,0.219-0.2,0.329c-0.06,0.1-0.122,0.197-0.177,0.3
		c-0.061,0.113-0.112,0.23-0.166,0.345c-0.05,0.106-0.103,0.21-0.148,0.319c-0.047,0.113-0.085,0.229-0.126,0.344
		c-0.042,0.116-0.086,0.23-0.122,0.349c-0.035,0.116-0.061,0.234-0.09,0.351c-0.03,0.12-0.064,0.238-0.088,0.36
		c-0.027,0.136-0.043,0.274-0.063,0.411c-0.015,0.105-0.035,0.208-0.045,0.315C0.013,383.006,0,383.254,0,383.503V415.5
		c0,4.142,3.358,7.5,7.5,7.5h448c4.142,0,7.5-3.358,7.5-7.5v-31.997C463,383.254,462.987,383.006,462.963,382.759z M162.606,239
		h137.787l137,137H25.606L162.606,239z M167,55h129v169H167V55z M448,408H15v-17h433V408z"/>
	<path d="M167.5,359h128c12.958,0,23.5-10.542,23.5-23.5v-16c0-12.958-10.542-23.5-23.5-23.5h-128c-12.958,0-23.5,10.542-23.5,23.5
		v16C144,348.458,154.542,359,167.5,359z M159,319.5c0-4.687,3.813-8.5,8.5-8.5h128c4.687,0,8.5,3.813,8.5,8.5v16
		c0,4.687-3.813,8.5-8.5,8.5h-128c-4.687,0-8.5-3.813-8.5-8.5V319.5z"/>
	<path d="M223.5,335h16c4.142,0,7.5-3.358,7.5-7.5s-3.358-7.5-7.5-7.5h-16c-4.142,0-7.5,3.358-7.5,7.5S219.358,335,223.5,335z"/>
	<path d="M263.5,335h16c4.142,0,7.5-3.358,7.5-7.5s-3.358-7.5-7.5-7.5h-16c-4.142,0-7.5,3.358-7.5,7.5S259.358,335,263.5,335z"/>
	<path d="M183.5,335h16c4.142,0,7.5-3.358,7.5-7.5s-3.358-7.5-7.5-7.5h-16c-4.142,0-7.5,3.358-7.5,7.5S179.358,335,183.5,335z"/>
</g>
<g>
</g>
<g>
</g>
<g>
</g>
<g>
</g>
<g>
</g>
<g>
</g>
<g>
</g>
<g>
</g>
<g>
</g>
<g>
</g>
<g>
</g>
<g>
</g>
<g>
</g>
<g>
</g>
<g>
</g>
</svg>
