<?xml version="1.0" encoding="iso-8859-1"?>
<!-- Generator: Adobe Illustrator 19.0.0, SVG Export Plug-In . SVG Version: 6.00 Build 0)  -->
<svg version="1.1" id="Capa_1" xmlns="http://www.w3.org/2000/svg" xmlns:xlink="http://www.w3.org/1999/xlink" x="0px" y="0px"
	 viewBox="0 0 512 512" style="enable-background:new 0 0 512 512;" xml:space="preserve">
<g>
	<g>
		<path d="M435.29,0H115.409C81.381,0,53.697,27.684,53.697,61.712v11.891c0,4.143,3.358,7.5,7.5,7.5c4.142,0,7.5-3.357,7.5-7.5
			V61.712C68.697,35.955,89.652,15,115.409,15H435.29c25.757,0,46.711,20.955,46.711,46.712v388.577
			c0,25.757-20.955,46.711-46.711,46.711H115.409c-25.757,0-46.711-20.954-46.711-46.711v-343.18c0-4.143-3.358-7.5-7.5-7.5
			c-4.142,0-7.5,3.357-7.5,7.5v75.141h-0.992c-20.791,0-37.707,16.915-37.707,37.707v72.087c0,20.791,16.915,37.706,37.707,37.706
			h0.992v120.539c0,34.027,27.684,61.711,61.711,61.711H435.29c34.028,0,61.711-27.684,61.711-61.711V61.712
			C497.001,27.684,469.317,0,435.29,0z M53.698,314.75h-0.992c-12.521,0-22.707-10.185-22.707-22.706v-72.087
			c0-12.521,10.186-22.707,22.707-22.707h0.992V314.75z"/>
	</g>
</g>
<g>
	<g>
		<path d="M414.247,46.717H136.451c-19.871,0-36.038,16.167-36.038,36.038v346.491c0,19.871,16.167,36.038,36.038,36.038h277.796
			c19.871,0,36.038-16.167,36.038-36.038V82.755C450.285,62.884,434.118,46.717,414.247,46.717z M326.636,110.849
			c0-20.009,16.278-36.287,36.287-36.287c20.009,0,36.287,16.278,36.287,36.287c0,10.979-5.008,21.37-13.5,28.238h-45.554v0
			C331.645,132.22,326.636,121.884,326.636,110.849z M348.231,61.717c-12.234,3.665-22.564,11.775-29.095,22.457
			c-6.531-10.682-16.861-18.792-29.095-22.457H348.231z M311.636,110.849c0,11.095-4.917,21.307-13.518,28.238h-45.536v0
			c-8.511-6.867-13.52-17.203-13.52-28.238c0-20.009,16.278-36.287,36.287-36.287C295.358,74.562,311.636,90.84,311.636,110.849z
			 M260.657,61.717c-12.234,3.665-22.564,11.775-29.095,22.457c-6.531-10.682-16.861-18.792-29.095-22.457H260.657z
			 M224.062,110.849c0,10.981-5.009,21.372-13.501,28.238h-45.553v0c-8.511-6.867-13.52-17.203-13.52-28.238
			c0-20.009,16.278-36.287,36.287-36.287C207.784,74.562,224.062,90.84,224.062,110.849z M136.452,61.717h36.632
			c-21.141,6.334-36.595,25.957-36.595,49.132c0,10.202,3.04,19.975,8.495,28.238h-29.569V82.755h-0.001
			C115.414,71.154,124.852,61.717,136.452,61.717z M280.59,450.285H165.823V327.013c0-9.254,7.528-16.782,16.782-16.782h16.32
			c9.253,0,16.782,7.528,16.782,16.782v98.605c-0.001,4.143,3.357,7.5,7.499,7.5c4.142,0,7.5-3.357,7.5-7.5v-98.605
			c0-9.254,7.528-16.782,16.782-16.782h16.321c9.253,0,16.781,7.528,16.781,16.782V450.285z M384.875,435.815
			c0,7.979-6.49,14.469-14.468,14.469h-60.348c-7.978,0-14.469-6.49-14.469-14.469V350.73c0-10.87,2.777-21.646,8.032-31.164
			l12.605-22.832c11.413-19.493,9.9-46.625,9.9-46.625h28.212c0,0-0.93,29.646,9.899,46.625l12.606,22.832
			c5.254,9.517,8.031,20.293,8.031,31.164V435.815z M315.908,227.151c0-4.388,3.57-7.958,7.958-7.958h32.735
			c4.388,0,7.958,3.57,7.958,7.958s-3.57,7.958-7.958,7.958h-32.735C319.478,235.109,315.908,231.539,315.908,227.151z
			 M435.285,429.246c0,11.601-9.438,21.038-21.038,21.038h-18.183c2.422-4.277,3.812-9.212,3.812-14.469V350.73
			c0-13.399-3.423-26.683-9.899-38.414l-12.606-22.832c-5.254-9.517-8.031-20.293-8.031-31.164v-12.08
			c6.157-4.122,10.22-11.139,10.22-19.089c0-12.659-10.299-22.958-22.958-22.958h-32.735c-12.659,0-22.958,10.299-22.958,22.958
			c0,7.95,4.063,14.967,10.22,19.089v12.08c0,10.871-2.777,21.647-8.031,31.164l-11.865,21.491
			c-5.524-9.41-15.744-15.745-27.421-15.745h-16.321c-9.73,0-18.447,4.399-24.282,11.308c-5.835-6.909-14.552-11.308-24.282-11.308
			h-16.32c-17.524,0-31.782,14.258-31.782,31.782v123.272h-14.371c-11.603,0-21.04-9.437-21.04-21.038V189.124H411.15
			c4.142,0,7.5-3.357,7.5-7.5s-3.358-7.5-7.5-7.5H115.414v-20.037h319.871V429.246z M435.285,139.087h-29.58
			c5.461-8.282,8.506-18.078,8.506-28.238c0-23.175-15.454-42.798-36.595-49.132h36.631c11.6,0,21.038,9.437,21.038,21.038V139.087z
			"/>
	</g>
</g>
<g>
	<g>
		<path d="M208.305,103.349h-24.972c-4.142,0-7.5,3.357-7.5,7.5s3.358,7.5,7.5,7.5h24.972c4.142,0,7.5-3.358,7.5-7.5
			C215.805,106.706,212.447,103.349,208.305,103.349z"/>
	</g>
</g>
<g>
	<g>
		<path d="M295.879,103.349h-24.972c-4.142,0-7.5,3.357-7.5,7.5s3.358,7.5,7.5,7.5h24.972c4.142,0,7.5-3.358,7.5-7.5
			C303.379,106.706,300.021,103.349,295.879,103.349z"/>
	</g>
</g>
<g>
	<g>
		<path d="M383.453,103.349h-24.972c-4.142,0-7.5,3.357-7.5,7.5s3.358,7.5,7.5,7.5h24.972c4.142,0,7.5-3.358,7.5-7.5
			C390.953,106.706,387.595,103.349,383.453,103.349z"/>
	</g>
</g>
<g>
</g>
<g>
</g>
<g>
</g>
<g>
</g>
<g>
</g>
<g>
</g>
<g>
</g>
<g>
</g>
<g>
</g>
<g>
</g>
<g>
</g>
<g>
</g>
<g>
</g>
<g>
</g>
<g>
</g>
</svg>
