<?xml version="1.0" encoding="iso-8859-1"?>
<!-- Generator: Adobe Illustrator 19.0.0, SVG Export Plug-In . SVG Version: 6.00 Build 0)  -->
<svg version="1.1" id="Layer_1" xmlns="http://www.w3.org/2000/svg" xmlns:xlink="http://www.w3.org/1999/xlink" x="0px" y="0px"
	 viewBox="0 0 512 512" style="enable-background:new 0 0 512 512;" xml:space="preserve">
<g>
	<g>
		<path d="M370.939,0H141.061c-15.844,0-28.735,12.89-28.735,28.735v444.082v7.837V512h47.02v-31.347h193.306V512h47.02v-31.347
			v-7.837V28.735C399.673,12.89,386.783,0,370.939,0z M143.673,496.327H128v-15.673h15.673V496.327z M384,496.327h-15.673v-15.673
			H384V496.327z M384,464.98H128V219.514h256V464.98z M384,203.841H128v-10.449h256V203.841z M384,177.718H128V28.735
			c0-7.202,5.859-13.061,13.061-13.061h229.878c7.201,0,13.061,5.859,13.061,13.061V177.718z"/>
	</g>
</g>
<g>
	<g>
		<path d="M180.277,61.735c-10.659,0-19.331,8.672-19.331,19.331v60.604c0,10.659,8.672,19.331,19.331,19.331
			c10.659,0,19.331-8.672,19.331-19.331V81.065C199.608,70.406,190.936,61.735,180.277,61.735z M183.934,141.669
			c0,2.017-1.641,3.657-3.657,3.657c-2.017,0-3.657-1.641-3.657-3.657V81.065c0-2.017,1.641-3.657,3.657-3.657
			c2.017,0,3.657,1.641,3.657,3.657V141.669z"/>
	</g>
</g>
<g>
	<g>
		<path d="M180.277,236.233c-10.659,0-19.331,8.672-19.331,19.331v60.604c0,10.659,8.672,19.331,19.331,19.331
			c10.659,0,19.331-8.672,19.331-19.331v-60.604C199.608,244.904,190.936,236.233,180.277,236.233z M183.934,316.167
			c0,2.017-1.641,3.657-3.657,3.657c-2.017,0-3.657-1.641-3.657-3.657v-60.604c0-2.017,1.641-3.657,3.657-3.657
			c2.017,0,3.657,1.641,3.657,3.657V316.167z"/>
	</g>
</g>
<g>
</g>
<g>
</g>
<g>
</g>
<g>
</g>
<g>
</g>
<g>
</g>
<g>
</g>
<g>
</g>
<g>
</g>
<g>
</g>
<g>
</g>
<g>
</g>
<g>
</g>
<g>
</g>
<g>
</g>
</svg>
