<?xml version="1.0" encoding="iso-8859-1"?>
<!-- Generator: Adobe Illustrator 21.0.0, SVG Export Plug-In . SVG Version: 6.00 Build 0)  -->
<svg xmlns="http://www.w3.org/2000/svg" xmlns:xlink="http://www.w3.org/1999/xlink" version="1.1" id="Capa_1" x="0px" y="0px" viewBox="0 0 513.313 513.313" style="enable-background:new 0 0 513.313 513.313;" xml:space="preserve" width="512" height="512">
<g>
	<path d="M227.734,316.292c0.966,0,1.941-0.187,2.869-0.571c2.803-1.16,4.63-3.896,4.63-6.929V190.034   c0-13.356-10.867-24.223-24.224-24.223H92.251c-3.034,0-5.768,1.827-6.929,4.63c-1.161,2.803-0.519,6.028,1.626,8.174   l135.481,135.48C223.864,315.53,225.782,316.292,227.734,316.292z M220.232,290.686L110.358,180.812h100.651   c5.086,0,9.224,4.138,9.224,9.223V290.686z"/>
	<path d="M68.096,187.668c-2.803,1.16-4.63,3.895-4.63,6.929v118.757c0,13.357,10.866,24.224,24.223,24.224h118.757   c3.034,0,5.768-1.827,6.929-4.63c1.161-2.803,0.519-6.028-1.626-8.174l-135.48-135.48   C74.125,187.149,70.898,186.506,68.096,187.668z M78.466,212.703L188.34,322.577H87.689c-5.085,0-9.223-4.138-9.223-9.224V212.703z   "/>
	<path d="M442.348,316.292c0.966,0,1.941-0.187,2.869-0.571c2.803-1.16,4.63-3.896,4.63-6.929V190.034   c0-13.356-10.867-24.223-24.223-24.223H306.866c-3.034,0-5.768,1.827-6.929,4.63c-1.161,2.803-0.519,6.028,1.626,8.174   l135.481,135.48C438.479,315.53,440.397,316.292,442.348,316.292z M434.847,290.686L324.972,180.812h100.651   c5.085,0,9.223,4.138,9.223,9.223V290.686z"/>
	<path d="M282.711,187.668c-2.803,1.16-4.63,3.895-4.63,6.929v118.757c0,13.357,10.866,24.224,24.223,24.224h118.757   c3.034,0,5.768-1.827,6.929-4.63c1.161-2.803,0.519-6.028-1.626-8.174l-135.481-135.48   C288.739,187.149,285.513,186.506,282.711,187.668z M293.081,212.703l109.874,109.874H302.304c-5.085,0-9.223-4.138-9.223-9.224   V212.703z"/>
	<path d="M256.657,57.173c-74.3,0-113.646,52.383-115.285,54.612c-1.675,2.279-1.925,5.306-0.648,7.828   c1.277,2.524,3.864,4.113,6.692,4.113h218.482c2.828,0,5.415-1.59,6.692-4.113c1.277-2.522,1.026-5.549-0.648-7.828   C370.303,109.556,330.956,57.173,256.657,57.173z M164.678,108.727c15.508-14.364,46.782-36.554,91.979-36.554   s76.47,22.19,91.978,36.554H164.678z"/>
	<path d="M510.131,399.778c-3.545-5.348-9.492-8.541-15.908-8.541h-14.556v-16.755c12.487-3.987,21.557-15.696,21.557-29.489   v-96.237c0-91.005-50.042-173.94-130.597-216.442c-3.663-1.932-8.201-0.529-10.133,3.134c-1.933,3.664-0.53,8.2,3.133,10.134   c75.621,39.897,122.597,117.75,122.597,203.175v96.237c0,8.795-7.155,15.95-15.95,15.95H130.33c-4.142,0-7.5,3.357-7.5,7.5   c0,4.143,3.358,7.5,7.5,7.5h334.336v15.293H48.646v-15.293h51.684c4.142,0,7.5-3.357,7.5-7.5c0-4.143-3.358-7.5-7.5-7.5H43.04   c-8.795,0-15.95-7.155-15.95-15.95v-96.237c0-61.319,23.879-118.969,67.238-162.328c43.36-43.359,101.009-67.238,162.329-67.238   c27.688,0,54.752,4.874,80.439,14.485c3.877,1.45,8.201-0.517,9.653-4.396c1.452-3.879-0.517-8.201-4.396-9.652   C314.978,9.383,286.146,4.19,256.657,4.19c-65.326,0-126.742,25.439-172.935,71.632C37.529,122.014,12.09,183.43,12.09,248.756   v96.237c0,13.792,9.07,25.502,21.556,29.489v16.755H19.091c-6.416,0-12.363,3.193-15.908,8.541   c-3.545,5.349-4.169,12.069-1.67,17.979l10.659,25.199c8.763,20.717,28.847,34.168,51.294,34.436v7.76   c0,13.219,10.754,23.973,23.973,23.973h34.795c13.218,0,23.972-10.754,23.972-23.973v-7.747h163.518c4.142,0,7.5-3.358,7.5-7.5   c0-4.143-3.358-7.5-7.5-7.5H64.146c-16.682,0-31.66-9.928-38.159-25.292l-10.659-25.199c-1.127-2.663,0.883-5.676,3.762-5.676   h475.132c2.88,0,4.889,3.013,3.762,5.676l-10.658,25.199c-6.498,15.364-21.476,25.292-38.159,25.292H339.724   c-4.142,0-7.5,3.357-7.5,7.5c0,4.142,3.358,7.5,7.5,7.5h27.382v7.747c0,13.219,10.754,23.973,23.972,23.973h34.795   c13.218,0,23.972-10.754,23.972-23.973v-7.76c22.447-0.267,42.532-13.718,51.295-34.436l10.658-25.199   C514.299,411.847,513.675,405.126,510.131,399.778z M131.206,485.151c0,4.947-4.025,8.973-8.972,8.973H87.439   c-4.948,0-8.973-4.025-8.973-8.973v-7.747h52.74V485.151z M425.874,494.123h-34.795c-4.947,0-8.972-4.025-8.972-8.973v-7.747h52.74   v7.747C434.846,490.098,430.822,494.123,425.874,494.123z"/>
</g>















</svg>
