<svg height="496pt" viewBox="0 0 496 496" width="496pt" xmlns="http://www.w3.org/2000/svg"><path d="m496 32v-16c0-8.824219-7.175781-16-16-16h-464c-8.824219 0-16 7.175781-16 16v16c0 8.824219 7.175781 16 16 16v401.472656c-9.289062 3.3125-16 12.113282-16 22.527344v24h496v-24c0-10.414062-6.710938-19.214844-16-22.527344v-401.472656c8.824219 0 16-7.175781 16-16zm-480-16h464l.015625 16h-464.015625zm192 32v400h-176v-400zm272 432h-464v-8c0-4.414062 3.585938-8 8-8h448c4.414062 0 8 3.585938 8 8zm-16-400h-128c-13.230469 0-24 10.769531-24 24v24h-8c-13.230469 0-24 10.769531-24 24v24h80v-24c0-13.230469-10.769531-24-24-24h-8v-24c0-4.414062 3.585938-8 8-8h128v104h-32v-16h-16v48h16v-16h32v232h-240v-400h240zm-128 64c4.414062 0 8 3.585938 8 8v8h-48v-8c0-4.414062 3.585938-8 8-8zm0 0"/><path d="m192 288v-80h-48v80zm-32-64h16v48h-16zm0 0"/><path d="m312 192h16v32h-16zm0 0"/><path d="m312 240h16v32h-16zm0 0"/><path d="m312 288h16v32h-16zm0 0"/><path d="m284.367188 223.226562 4.28125-31.710937 15.855468 2.140625-4.28125 31.714844zm0 0"/><path d="m277.9375 270.800781 4.285156-31.722656 15.855469 2.140625-4.285156 31.722656zm0 0"/><path d="m271.5 318.359375 4.285156-31.710937 15.855469 2.140624-4.28125 31.710938zm0 0"/><path d="m336.988281 193.285156 15.902344-1.773437 3.539063 31.808593-15.902344 1.769532zm0 0"/><path d="m342.277344 240.988281 15.902344-1.761719 3.53125 31.796876-15.902344 1.761718zm0 0"/><path d="m347.574219 288.695312 15.902343-1.765624 3.527344 31.804687-15.902344 1.765625zm0 0"/></svg>