<svg height="496pt" viewBox="0 -128 496.00031 496" width="496pt" xmlns="http://www.w3.org/2000/svg"><path d="m487.949219 151.917969-7.949219.050781v-32l8.050781-.050781c4.417969-.027344 7.976563-3.632813 7.949219-8.050781-.027344-4.417969-3.714844-8.238282-8.050781-7.949219l-7.949219.050781v-63.949219c0-2.121093-.84375-4.15625-2.34375-5.65625l-32-32.011719c-3-3-8.3125-3-11.3125 0l-32 32.011719c-1.5 1.5-2.34375 3.535157-2.34375 5.65625v63.90625h-16v-64c0-2.121093-.84375-4.15625-2.339844-5.65625l-32-32.015625c-3.007812-3-8.3125-3-11.320312 0l-32 32.015625c-1.496094 1.5-2.339844 3.535157-2.339844 5.65625v63.992188h-16v-64c0-2.121094-.84375-4.15625-2.34375-5.65625l-32-32.011719c-3-3-8.3125-3-11.3125 0l-32 32.011719c-1.5 1.5-2.34375 3.535156-2.34375 5.65625v64h-16v-63.992188c0-2.121093-.84375-4.15625-2.339844-5.65625l-32-32.015625c-3.007812-3-8.3125-3-11.320312 0l-32 32.015625c-1.496094 1.5-2.339844 3.535157-2.339844 5.65625v64h-16v-63.90625c0-2.121093-.84375-4.15625-2.34375-5.65625l-32-32.011719c-3-3-8.3125-3-11.3125 0l-32 32.011719c-1.5 1.5-2.34375 3.535157-2.34375 5.65625v63.949219l-7.949219-.050781c-.015625 0-.035156 0-.050781 0-4.394531 0-7.9726562 3.546875-8 7.949219-.0273438 4.417968 3.53125 8.023437 7.949219 8.050781l8.050781.050781v32l-7.949219-.050781c-.015625 0-.035156 0-.050781 0-4.394531 0-7.9726562 3.546875-8 7.949219-.0273438 4.417968 3.53125 8.023437 7.949219 8.050781l8.050781.050781v64.050781c0 4.417969 3.582031 8 8 8h64c4.417969 0 8-3.582031 8-8v-64.09375h16v64c0 4.417969 3.582031 8 8 8h64c4.417969 0 8-3.582031 8-8v-64.007812h16v64c0 4.417969 3.582031 8 8 8h64c4.417969 0 8-3.582031 8-8v-64h16v64.007812c0 4.417969 3.582031 8 8 8h64c4.417969 0 8-3.582031 8-8v-64h16v64.09375c0 4.417969 3.582031 8 8 8h64c4.417969 0 8-3.582031 8-8v-64.050781l8.050781-.050781c4.417969-.027344 7.976563-3.632813 7.949219-8.050781-.027344-4.417969-3.714844-7.726563-8.050781-7.949219zm-407.949219 72.101562h-48v-180.6875l24-24.007812 24 24.007812zm16-72.09375v-32h16v32zm80 72h-48v-180.6875l24-24.011719 24 24.011719zm16-72.007812v-32h16v32zm80 72h-48v-180.6875l24-24.007813 24 24.007813zm16-72v-32h16v32zm80 72.007812h-48v-180.6875l24-24.011719 24 24.011719zm16-72v-32h16v32zm80 72.09375h-48v-180.6875l24-24.007812 24 24.007812zm0 0"/></svg>