<svg id="Capa_1" enable-background="new 0 0 511.988 511.988" height="512" viewBox="0 0 511.988 511.988" width="512" xmlns="http://www.w3.org/2000/svg"><g><path d="m464.053 197.593c.011-1.59.024-3.2.037-4.846.287-35.228.681-83.474-17.197-126.268-1.597-3.822-5.99-5.625-9.812-4.029-3.822 1.597-5.626 5.989-4.029 9.812 13.141 31.456 15.701 66.942 16.062 97.175h-118.158c.58-50.69 7.255-114.673 59.078-152.761 11.563 8.499 21.48 18.75 29.527 30.526 2.336 3.42 7.002 4.299 10.423 1.961 3.42-2.336 4.298-7.003 1.961-10.423-10.076-14.747-22.764-27.348-37.712-37.453-2.538-1.716-5.864-1.716-8.403.001-31.472 21.291-51.722 51.923-61.908 93.646-6.827 27.965-7.952 56.186-8.012 80.835h-250.556c-10.074 0-18.27 8.196-18.27 18.27 0 1.227.12 2.434.354 3.61-7.341 1.023-14.123 4.381-19.458 9.716-6.477 6.477-10.043 15.09-10.043 24.254 0 18.917 15.391 34.308 34.308 34.308h28.92v109.032c0 4.142 3.358 7.5 7.5 7.5h92.223c4.142 0 7.5-3.358 7.5-7.5v-36.631l24.645 24.645-97.17 97.17c-5.742 5.735-8.905 13.364-8.905 21.481s3.163 15.746 8.905 21.481c5.924 5.917 13.702 8.875 21.479 8.875s15.556-2.959 21.474-8.877l34.27-34.26c2.929-2.929 2.93-7.677.001-10.607-2.929-2.929-7.678-2.93-10.607-.001l-34.271 34.261c-5.992 5.991-15.747 5.99-21.747-.003-2.905-2.902-4.505-6.762-4.505-10.869s1.6-7.966 4.508-10.872l97.173-97.172 21.748 21.748-41.917 41.908c-2.929 2.928-2.93 7.677-.001 10.606 1.464 1.465 3.384 2.197 5.304 2.197 1.919 0 3.838-.732 5.303-2.196l41.918-41.909 97.169 97.169c5.923 5.923 13.7 8.883 21.48 8.883 7.778 0 15.559-2.962 21.48-8.883 11.845-11.844 11.845-31.117 0-42.961l-97.168-97.168 97.046-97.046h63.742c9.164 0 17.777-3.567 24.254-10.043 6.483-6.484 10.054-15.102 10.054-24.265.001-17.456-13.108-31.899-29.997-34.027zm-133.032-.28c-.011-1.544-.023-3.107-.036-4.703-.022-2.659-.044-5.388-.059-8.173h118.222c-.015 2.797-.036 5.535-.058 8.188-.013 1.591-.025 3.149-.036 4.688zm-265.667-6.543h250.616c.005.651.01 1.318.015 1.962.013 1.554.025 3.074.035 4.578h-250.666c-1.182 0-1.967-.605-2.317-.953-.435-.435-.953-1.19-.953-2.317 0-1.803 1.467-3.27 3.27-3.27zm-13.109 60.159c-10.646 0-19.308-8.662-19.308-19.308 0-5.157 2.006-10.004 5.65-13.647 3.65-3.65 8.5-5.661 13.658-5.661h28.92v38.616zm149.664 15h108.169l-54.085 54.084zm-28.522 50.488h-77.223v-104.103h77.223zm-77.223 51.044v-36.044h77.223v36.044zm289.352 125.037c-5.997 5.995-15.752 5.996-21.748 0l-134.744-134.744c-.027-.028-.05-.059-.078-.086s-.058-.051-.086-.078l-40.473-40.473v-43.497l94.656 94.656c.001.001.001.002.002.002s.002.001.003.002l102.469 102.469c5.996 5.996 5.996 15.753-.001 21.749zm-97.167-140.13-21.749-21.748 64.691-64.691h43.497zm185.042-107.089c-3.644 3.644-8.49 5.65-13.647 5.65h-271.357v-38.616h271.356c10.646 0 19.308 8.662 19.308 19.308 0 5.157-2.01 10.007-5.66 13.658z"/><circle cx="360.538" cy="141.904" r="7.5"/><circle cx="362.683" cy="105.44" r="7.5"/><circle cx="390.037" cy="67.55" r="7.5"/><circle cx="417.383" cy="105.44" r="7.5"/><circle cx="419.533" cy="141.904" r="7.5"/><circle cx="111.223" cy="350.654" r="7.5"/></g></svg>