<svg id="Capa_1" enable-background="new 0 0 504.811 504.811" height="512" viewBox="0 0 504.811 504.811" width="512" xmlns="http://www.w3.org/2000/svg"><g><path d="m401.518 350.17c0-11.731 9.544-21.275 21.275-21.275s21.276 9.544 21.276 21.275v113.278h-52.552c-12.84 0-12.858 20 0 20h21.275v11.726c0 12.84 20 12.858 20 0v-11.726h21.276c5.522 0 10-4.478 10-10v-123.278c0-19.312-13.333-35.562-31.276-40.044v-39.749c0-16.542-13.458-30-30-30h-301.427c-16.542 0-30 13.458-30 30v39.918c-17.613 4.709-30.624 20.797-30.624 39.875v123.278c0 5.522 4.478 10 10 10h20.624v11.726c0 12.84 20 12.858 20 0v-11.726h218.695c12.84 0 12.858-20 0-20h-249.319v-113.278c0-11.731 9.544-21.275 21.275-21.275s21.276 9.544 21.276 21.275l-.218 54.435c0 12.84 20 12.858 20 0v-13.576h258.443v13.576c0 12.84 20 12.858 20 0v-54.435zm-20 0v20.858h-258.225v-20.858c0-19.544-13.658-35.946-31.928-40.195v-39.598c0-5.514 4.486-10 10-10h301.429c5.514 0 10 4.486 10 10v39.749c-17.943 4.482-31.276 20.732-31.276 40.044z"/><path d="m253.09 280.319c-5.522 0-10 4.478-10 10v51.801c0 12.84 20 12.858 20 0v-51.801c0-5.522-4.477-10-10-10z"/><path d="m62.52 139.041h110.992c3.539 0 6.642-1.844 8.419-4.618 6.177 2.774 12.976 4.391 20.129 4.582v28.714c0 5.522 4.478 10 10 10h85.579c5.522 0 10-4.478 10-10v-66.559c13.876 6.079 30.185 5.812 43.851-.739v48.797c0 5.522 4.478 10 10 10h85.579c5.522 0 10-4.478 10-10v-67.077c0-5.522-4.478-10-10-10h-69.221c2.372-5.997 3.69-12.521 3.69-19.352 0-29.108-23.681-52.789-52.789-52.789s-52.79 23.681-52.79 52.789c0 6.83 1.318 13.355 3.69 19.352h-25.309c-6.189-22.276-26.638-38.678-50.858-38.678-7.675 0-14.965 1.66-21.551 4.618-1.777-2.774-4.88-4.618-8.419-4.618h-110.992c-5.522 0-10 4.478-10 10v85.578c0 5.522 4.478 10 10 10zm225.119 18.678h-65.579v-22.062c18.206-6.869 31.644-23.521 33.874-43.516h31.705zm149.43-18.501h-65.579v-47.077h65.579zm-108.32-119.218c18.08 0 32.789 14.709 32.789 32.789s-14.709 32.789-32.789 32.789-32.79-14.709-32.79-32.789 14.71-32.789 32.79-32.789zm-92.478 66.252c0 18.08-14.709 32.789-32.789 32.789s-32.789-14.709-32.789-32.789 14.709-32.789 32.789-32.789 32.789 14.709 32.789 32.789zm-163.751-32.789h89.636c-7.167 9.013-11.464 20.405-11.464 32.789s4.297 23.776 11.464 32.789h-89.636z"/><path d="m360.032 469.62c-2.094-5.031-8.009-7.492-13.05-5.41-5.035 2.079-7.497 8.032-5.41 13.06 2.09 5.035 8.009 7.492 13.05 5.41 5.052-2.087 7.478-8.018 5.41-13.06z"/></g></svg>