<?xml version="1.0" encoding="iso-8859-1"?>
<!-- Generator: Adobe Illustrator 17.1.0, SVG Export Plug-In . SVG Version: 6.00 Build 0)  -->
<!DOCTYPE svg PUBLIC "-//W3C//DTD SVG 1.1//EN" "http://www.w3.org/Graphics/SVG/1.1/DTD/svg11.dtd">
<svg version="1.1" id="Capa_1" xmlns="http://www.w3.org/2000/svg" xmlns:xlink="http://www.w3.org/1999/xlink" x="0px" y="0px"
	 viewBox="0 0 269.543 269.543" style="enable-background:new 0 0 269.543 269.543;" xml:space="preserve">
<g>
	<path style="fill:#000002;" d="M89.802,80.429c-13.904,0-25.217,11.312-25.217,25.217c0,13.905,11.313,25.217,25.217,25.217
		s25.217-11.312,25.217-25.217C115.019,91.741,103.706,80.429,89.802,80.429z M89.802,120.863c-8.391,0-15.217-6.826-15.217-15.217
		c0-8.391,6.826-15.217,15.217-15.217c8.391,0,15.217,6.826,15.217,15.217C105.019,114.037,98.192,120.863,89.802,120.863z"/>
	<path style="fill:#000002;" d="M252.043,156.119H156.2c10.942-14.402,17.017-32.104,17.017-50.473
		c0-45.995-37.42-83.415-83.415-83.415c-45.995,0-83.414,37.42-83.414,83.415c0,18.369,6.074,36.071,17.017,50.473H17.5
		c-9.649,0-17.5,7.851-17.5,17.5v56.193c0,9.649,7.851,17.5,17.5,17.5h234.543c9.649,0,17.5-7.851,17.5-17.5v-56.193
		C269.543,163.969,261.692,156.119,252.043,156.119z M21.388,105.646c0-37.724,30.69-68.415,68.414-68.415
		c37.725,0,68.415,30.691,68.415,68.415c0,19.209-8.108,37.52-22.262,50.473H43.65C29.496,143.166,21.388,124.854,21.388,105.646z
		 M254.543,229.812c0,1.355-1.145,2.5-2.5,2.5H17.5c-1.355,0-2.5-1.145-2.5-2.5v-56.193c0-1.355,1.145-2.5,2.5-2.5h234.543
		c1.355,0,2.5,1.145,2.5,2.5V229.812z"/>
	<path style="fill:#000002;" d="M150.281,183.141H41.283c-5.514,0-10,4.486-10,10v17.148c0,5.514,4.486,10,10,10h108.998
		c5.514,0,10-4.486,10-10v-17.148C160.281,187.627,155.795,183.141,150.281,183.141z M150.267,210.29H41.283v-17.148h108.998
		L150.267,210.29z M150.281,215.29v-5h0.001L150.281,215.29z"/>
	<path style="fill:#000002;" d="M193.948,194.215h-12.5c-4.143,0-7.5,3.358-7.5,7.5c0,4.142,3.357,7.5,7.5,7.5h12.5
		c4.143,0,7.5-3.358,7.5-7.5C201.448,197.573,198.091,194.215,193.948,194.215z"/>
	<path style="fill:#000002;" d="M230.948,194.215h-12.5c-4.143,0-7.5,3.358-7.5,7.5c0,4.142,3.357,7.5,7.5,7.5h12.5
		c4.143,0,7.5-3.358,7.5-7.5C238.448,197.573,235.091,194.215,230.948,194.215z"/>
</g>
<g>
</g>
<g>
</g>
<g>
</g>
<g>
</g>
<g>
</g>
<g>
</g>
<g>
</g>
<g>
</g>
<g>
</g>
<g>
</g>
<g>
</g>
<g>
</g>
<g>
</g>
<g>
</g>
<g>
</g>
</svg>
