<svg height="512" viewBox="0 0 64 64" width="512" xmlns="http://www.w3.org/2000/svg"><g id="Home_theater" data-name="Home theater"><path d="m11 23a5 5 0 1 0 -5-5 5.006 5.006 0 0 0 5 5zm0-8a3 3 0 1 1 -3 3 3 3 0 0 1 3-3z"/><path d="m11 37a5 5 0 1 0 -5-5 5.006 5.006 0 0 0 5 5zm0-8a3 3 0 1 1 -3 3 3 3 0 0 1 3-3z"/><path d="m11 51a5 5 0 1 0 -5-5 5.006 5.006 0 0 0 5 5zm0-8a3 3 0 1 1 -3 3 3 3 0 0 1 3-3z"/><path d="m61 2h-16a1 1 0 0 0 -1 1v17h-24v-17a1 1 0 0 0 -1-1h-16a1 1 0 0 0 -1 1v58a1 1 0 0 0 1 1h16a1 1 0 0 0 1-1v-1h24v1a1 1 0 0 0 1 1h16a1 1 0 0 0 1-1v-58a1 1 0 0 0 -1-1zm-17 50h-24v-22h24zm0-30v6h-24v-6zm-40 38v-51h11v-2h-11v-3h14v51h-11v2h11v3zm16-2v-4h24v4zm26 2v-3h11v-2h-11v-51h14v3h-11v2h11v51z"/><path d="m53 13a5 5 0 1 0 5 5 5.006 5.006 0 0 0 -5-5zm0 8a3 3 0 1 1 3-3 3 3 0 0 1 -3 3z"/><path d="m53 27a5 5 0 1 0 5 5 5.006 5.006 0 0 0 -5-5zm0 8a3 3 0 1 1 3-3 3 3 0 0 1 -3 3z"/><path d="m53 41a5 5 0 1 0 5 5 5.006 5.006 0 0 0 -5-5zm0 8a3 3 0 1 1 3-3 3 3 0 0 1 -3 3z"/><path d="m27 40a3 3 0 1 0 3 3 3 3 0 0 0 -3-3zm0 4a1 1 0 1 1 1-1 1 1 0 0 1 -1 1z"/><path d="m40 43a3 3 0 1 0 -3 3 3 3 0 0 0 3-3zm-3 1a1 1 0 1 1 1-1 1 1 0 0 1 -1 1z"/><path d="m23 38h18a1 1 0 0 0 1-1v-4a1 1 0 0 0 -1-1h-18a1 1 0 0 0 -1 1v4a1 1 0 0 0 1 1zm1-4h16v2h-16z"/><path d="m22 24h4v2h-4z"/><path d="m28 24h14v2h-14z"/><path d="m22 48h4v2h-4z"/><path d="m28 48h2v2h-2z"/><path d="m34 48h2v2h-2z"/><path d="m38 48h4v2h-4z"/></g></svg>