<svg height="496pt" viewBox="0 0 496 496" width="496pt" xmlns="http://www.w3.org/2000/svg"><path d="m32 56v112h16v-112c0-4.40625 3.585938-8 8-8h16v-16h-16c-13.230469 0-24 10.769531-24 24zm0 0"/><path d="m32 184h16v16h-16zm0 0"/><path d="m222.527344 160h65.472656v-48h-64v-32h64v-48h-65.472656c-3.3125-9.289062-12.113282-16-22.527344-16h-41.191406c-2.960938-9.246094-11.535156-16-21.753906-16h-81.054688c-30.871094 0-56 25.121094-56 56v144c0 22.28125 13.113281 41.511719 32 50.519531v13.480469c0 10.414062 6.710938 19.214844 16 22.527344v49.472656h16v104c0 22.054688 17.945312 40 40 40h48v16h16v-32h-64c-13.230469 0-24-10.769531-24-24v-104h16v-49.472656c9.289062-3.3125 16-12.113282 16-22.527344v-8.832031c9.199219-2.367188 16.488281-10.03125 17.878906-19.777344l8.488282-59.390625h61.632812c10.414062 0 19.214844-6.710938 22.527344-16zm1.472656-112h48v16h-48zm0 80h48v16h-48zm-144 192h-16v-32h16zm16-56c0 4.40625-3.585938 8-8 8h-32c-4.414062 0-8-3.59375-8-8v-8.640625c2.625.375 5.28125.640625 8 .640625h40zm18.039062-30.863281c-.550781 3.910156-3.960937 6.863281-7.910156 6.863281h-50.128906c-22.054688 0-40-17.945312-40-40v-144c0-22.054688 17.945312-40 40-40h81.0625c3.824219 0 6.9375 3.113281 6.9375 6.9375 0 .320312-.015625.648438-.070312.984375zm93.960938-81.136719c0 4.40625-3.585938 8-8 8h-59.34375l18.289062-128h41.054688c4.414062 0 8 3.59375 8 8zm0 0"/><path d="m480 192v-64h-64v64h-16v104c0 13.230469 10.769531 24 24 24v48h16v72c0 13.230469-10.769531 24-24 24h-88v-16h-16v32h104c22.054688 0 40-17.945312 40-40v-72h16v-48c13.230469 0 24-10.769531 24-24v-104zm-48-48h32v48h-32zm24 208h-16v-32h16zm24-56c0 4.40625-3.585938 8-8 8h-48c-4.414062 0-8-3.59375-8-8v-56h64zm0-72h-64v-16h64zm0 0"/><path d="m432 272h32v16h-32zm0 0"/><path d="m184 448h16v48h-16zm0 0"/><path d="m216 448h16v48h-16zm0 0"/><path d="m248 448h16v48h-16zm0 0"/><path d="m280 448h16v48h-16zm0 0"/></svg>