<svg height="496pt" viewBox="0 0 496 496" width="496pt" xmlns="http://www.w3.org/2000/svg"><path d="m312 240h-128c-13.230469 0-24 10.769531-24 24v208c0 13.230469 10.769531 24 24 24h128c13.230469 0 24-10.769531 24-24v-208c0-13.230469-10.769531-24-24-24zm-128 16h128c4.40625 0 8 3.59375 8 8v152h-144v-152c0-4.40625 3.59375-8 8-8zm128 224h-128c-4.40625 0-8-3.59375-8-8v-40h144v40c0 4.40625-3.59375 8-8 8zm0 0"/><path d="m240 448h16v16h-16zm0 0"/><path d="m208 448h16v16h-16zm0 0"/><path d="m272 448h16v16h-16zm0 0"/><path d="m248 400c30.878906 0 56-25.121094 56-56s-25.121094-56-56-56-56 25.121094-56 56 25.121094 56 56 56zm0-96c22.054688 0 40 17.945312 40 40s-17.945312 40-40 40-40-17.945312-40-40 17.945312-40 40-40zm0 0"/><path d="m248 368c13.230469 0 24-10.769531 24-24s-10.769531-24-24-24-24 10.769531-24 24 10.769531 24 24 24zm0-32c4.40625 0 8 3.59375 8 8s-3.59375 8-8 8-8-3.59375-8-8 3.59375-8 8-8zm0 0"/><path d="m112 64h-96c-8.824219 0-16 7.175781-16 16v320c0 8.824219 7.175781 16 16 16h16v64h-32v16h128v-16h-32v-64h16c8.824219 0 16-7.175781 16-16v-320c0-8.824219-7.175781-16-16-16zm-32 416h-32v-64h32zm32.007812-112h-16.007812v16h16.007812v16h-96.007812v-16h64v-16h-64v-149.808594c11.734375 13.335938 28.878906 21.808594 48 21.808594s36.265625-8.472656 48.007812-21.816406zm-96.007812-192c0-26.472656 21.527344-48 48-48s48 21.527344 48 48-21.527344 48-48 48-48-21.527344-48-48zm48-64c-19.121094 0-36.265625 8.472656-48 21.808594v-53.808594h96v53.816406c-11.734375-13.34375-28.878906-21.816406-48-21.816406zm0 0"/><path d="m64 208c17.648438 0 32-14.351562 32-32s-14.351562-32-32-32-32 14.351562-32 32 14.351562 32 32 32zm0-48c8.824219 0 16 7.175781 16 16s-7.175781 16-16 16-16-7.175781-16-16 7.175781-16 16-16zm0 0"/><path d="m64 272c-17.648438 0-32 14.351562-32 32s14.351562 32 32 32 32-14.351562 32-32-14.351562-32-32-32zm0 48c-8.824219 0-16-7.175781-16-16s7.175781-16 16-16 16 7.175781 16 16-7.175781 16-16 16zm0 0"/><path d="m480 64h-96c-8.824219 0-16 7.175781-16 16v320c0 8.824219 7.175781 16 16 16h16v64h-32v16h128v-16h-32v-64h16c8.824219 0 16-7.175781 16-16v-320c0-8.824219-7.175781-16-16-16zm-32 416h-32v-64h32zm32.007812-112h-16.007812v16h16.007812v16h-96.007812v-16h64v-16h-64v-149.808594c11.734375 13.335938 28.878906 21.808594 48 21.808594s36.265625-8.472656 48.007812-21.816406zm-96.007812-192c0-26.472656 21.527344-48 48-48s48 21.527344 48 48-21.527344 48-48 48-48-21.527344-48-48zm48-64c-19.121094 0-36.265625 8.472656-48 21.808594v-53.808594h96v53.816406c-11.734375-13.34375-28.878906-21.816406-48-21.816406zm0 0"/><path d="m432 208c17.648438 0 32-14.351562 32-32s-14.351562-32-32-32-32 14.351562-32 32 14.351562 32 32 32zm0-48c8.824219 0 16 7.175781 16 16s-7.175781 16-16 16-16-7.175781-16-16 7.175781-16 16-16zm0 0"/><path d="m432 272c-17.648438 0-32 14.351562-32 32s14.351562 32 32 32 32-14.351562 32-32-14.351562-32-32-32zm0 48c-8.824219 0-16-7.175781-16-16s7.175781-16 16-16 16 7.175781 16 16-7.175781 16-16 16zm0 0"/><path d="m208 160c-13.230469 0-24 10.769531-24 24s10.769531 24 24 24 24-10.769531 24-24v-40h64v17.472656c-2.511719-.898437-5.183594-1.472656-8-1.472656-13.230469 0-24 10.769531-24 24s10.769531 24 24 24 24-10.769531 24-24v-88h-96v65.472656c-2.511719-.898437-5.183594-1.472656-8-1.472656zm0 32c-4.40625 0-8-3.59375-8-8s3.59375-8 8-8 8 3.59375 8 8-3.59375 8-8 8zm80 0c-4.40625 0-8-3.59375-8-8s3.59375-8 8-8 8 3.59375 8 8-3.59375 8-8 8zm8-80v16h-64v-16zm0 0"/><path d="m240 0h16v48h-16zm0 0"/><path d="m168.804688 36.121094 11.3125-11.316406 33.941406 33.941406-11.316406 11.3125zm0 0"/><path d="m281.9375 58.746094 33.941406-33.941406 11.3125 11.316406-33.9375 33.941406zm0 0"/></svg>