<svg height="512pt" viewBox="-41 0 512 512" width="512pt" xmlns="http://www.w3.org/2000/svg"><path d="m215 456c22.882812 0 44.394531-5.949219 63.089844-16.371094.808594-.230468 1.601562-.554687 2.359375-1 .714843-.421875 1.347656-.925781 1.917969-1.480468 24.695312-15.023438 44.003906-38.042969 54.328124-65.433594 6.527344-14.082032 8.304688-30.347656 8.304688-45.714844 0-7.820312-.769531-15.632812-2.207031-23.320312-1.375-7.355469-2.933594-15.566407-6.097657-22.394532-18.542968-49.195312-66.09375-84.285156-121.695312-84.285156-71.683594 0-130 58.316406-130 130s58.316406 130 130 130zm-109.539062-120h70.804687c4.453125 17.234375 20.128906 30 38.734375 30 3.554688 0 7.003906-.472656 10.289062-1.347656l35.988282 61.121094c-14.074219 6.558593-29.753906 10.226562-46.277344 10.226562-57.28125 0-104.472656-44.015625-109.539062-100zm118.296874-27.902344c6.578126 3.308594 11.242188 10.164063 11.242188 17.902344 0 11.027344-8.972656 20-20 20s-20-8.972656-20-20 8.972656-20 20-20c3.109375 0 6.089844.757812 8.757812 2.097656zm97.3125-12.253906c.953126 3.105469 2.1875 10.589844 2.347657 11.535156 1.050781 6.144532 1.582031 12.386719 1.582031 18.621094 0 10.652344-1.546875 21.296875-4.605469 31.5h-20.394531v-63h20.394531c.191407 0 .421875.515625.675781 1.34375zm-8.894531-21.34375h-12.175781c-11.027344 0-20 8.972656-20 20v63c0 11.027344 8.972656 20 20 20h12.175781c-8.09375 15.207031-19.644531 28.304688-33.605469 38.222656l-35.867187-60.914062c7.570313-7.28125 12.296875-17.5 12.296875-28.808594 0-11.222656-4.652344-21.371094-12.121094-28.644531l35.882813-60.941407c13.875 9.902344 25.359375 22.949219 33.414062 38.085938zm-97.175781-58.5c16.605469 0 32.363281 3.707031 46.492188 10.324219l-35.96875 61.089843c-3.355469-.914062-6.878907-1.414062-10.523438-1.414062-18.605469 0-34.28125 12.765625-38.734375 30h-70.804687c5.066406-55.984375 52.257812-100 109.539062-100zm0 0"/><path d="m420 0h-410c-5.523438 0-10 4.476562-10 10v492c0 5.523438 4.476562 10 10 10h410c5.523438 0 10-4.476562 10-10v-492c0-5.523438-4.476562-10-10-10zm-400 20h390v120h-390zm0 472v-40h40v40zm390 0h-330v-50c0-5.523438-4.476562-10-10-10h-50v-272h390zm0 0"/><path d="m80 40c-22.054688 0-40 17.945312-40 40s17.945312 40 40 40 40-17.945312 40-40-17.945312-40-40-40zm0 60c-11.027344 0-20-8.972656-20-20s8.972656-20 20-20 20 8.972656 20 20-8.972656 20-20 20zm0 0"/><path d="m220.230469 40h-40c-5.519531 0-10 4.476562-10 10s4.480469 10 10 10h40c5.523437 0 10-4.476562 10-10s-4.476563-10-10-10zm0 0"/><path d="m280.230469 40h-20c-5.519531 0-10 4.476562-10 10s4.480469 10 10 10h20c5.523437 0 10-4.476562 10-10s-4.476563-10-10-10zm0 0"/><path d="m380.230469 40c-5.511719 0-10 4.488281-10 10s4.488281 10 10 10c5.519531 0 10-4.488281 10-10s-4.480469-10-10-10zm0 0"/><path d="m340.230469 40h-20c-5.511719 0-10 4.488281-10 10s4.488281 10 10 10h20c5.507812 0 10-4.488281 10-10s-4.492188-10-10-10zm0 0"/></svg>